<?xml version="1.0" encoding="utf-8"?>
<svg xmlns="http://www.w3.org/2000/svg" xml:space="preserve" width="720" height="475" viewBox="0 0 142.137 93.613">
  <path d="M61.174 31.226H85.09s16.559 0 16.559 18.59c0 17.299-11.41 17.299-11.41 17.299s-13.066 0-13.066 7.174c0 5.895 4.785 5.893 6.625 5.893h38.281s7.918 0 7.918-5.893c0-7.174-8.012-6.672-12.703-7.174-5.154-.553-12.516-2.578-12.516-17.299 0-17.119 13.254-18.406 17.301-18.59s20.059 0 20.059 0v12.332h-20.246s-4.598 0-4.598 6.258c0 6.07 4.785 6.07 4.785 6.07s20.059 0 20.059 18.402c0 18.406-18.406 18.406-19.688 18.406H82.141s-16.746 0-16.746-18.406c0-18.402 18.695-18.283 20.426-18.402 1.299-.086 4.418 0 4.418-6.256 0-6.072-3.867-5.889-5.148-6.072-1.293-.186-23.928 0-23.928 0l.011-12.332z"/>
  <path d="m48.305 43.558-20.375.066s-16.258 1.938-15.629 20.59L.062 64.077s-.141-5.016 0-6.672c.137-1.656.092-3.727.828-6.627.73-2.896 2.066-6.117 2.672-6.994.598-.871 2.711-4.094 4.781-5.793 2.07-1.707 5.062-3.684 8.465-4.832 3.406-1.152 7.133-1.934 8.145-1.934h36.852l.094 12.332H48.305z"/>
  <path d="M12.295 63.868c.061 1.84 3.041 17.229 17.213 17.229 19.324 0 18.773-16.379 18.773-16.379l.094-22.293L61 42.679l.162 24.156S59.51 93.706 31.348 93.612C3.375 93.522.062 64.812.062 63.985l12.233-.117zm35.83-32.045s1.258-9.25-1.684-13.848c-3.715-5.805-13.617-5.52-13.617-5.52H10.922L10.996.006h22.637S49.75-.615 56.746 10.061C61.949 18.007 61 32.075 61 32.075l-12.875-.252z"/>
</svg>